<mxfile host="app.diagrams.net" modified="2024-04-07T22:08:52.259Z" agent="Mozilla/5.0 (X11; Linux x86_64) AppleWebKit/537.36 (KHTML, like Gecko) Chrome/121.0.0.0 Safari/537.36" etag="K3aDBFE9YveIZpkiAHg9" version="24.2.0" type="github">
  <diagram id="C5RBs43oDa-KdzZeNtuy" name="Page-1">
    <mxGraphModel dx="1362" dy="793" grid="1" gridSize="10" guides="1" tooltips="1" connect="1" arrows="1" fold="1" page="1" pageScale="1" pageWidth="827" pageHeight="1169" math="0" shadow="0">
      <root>
        <mxCell id="WIyWlLk6GJQsqaUBKTNV-0" />
        <mxCell id="WIyWlLk6GJQsqaUBKTNV-1" parent="WIyWlLk6GJQsqaUBKTNV-0" />
        <mxCell id="M58NiKq6CdFCrtSbu0_P-21" style="edgeStyle=orthogonalEdgeStyle;rounded=0;orthogonalLoop=1;jettySize=auto;html=1;exitX=1;exitY=0.75;exitDx=0;exitDy=0;strokeWidth=4;entryX=0;entryY=0.5;entryDx=0;entryDy=0;" edge="1" parent="WIyWlLk6GJQsqaUBKTNV-1" source="M58NiKq6CdFCrtSbu0_P-7" target="M58NiKq6CdFCrtSbu0_P-22">
          <mxGeometry relative="1" as="geometry">
            <mxPoint x="240" y="153" as="targetPoint" />
          </mxGeometry>
        </mxCell>
        <mxCell id="M58NiKq6CdFCrtSbu0_P-7" value="&lt;font style=&quot;font-size: 25px;&quot;&gt;RNN&lt;/font&gt;" style="rounded=1;whiteSpace=wrap;html=1;fontSize=12;glass=0;strokeWidth=4;shadow=0;rotation=0;fillColor=#f8cecc;strokeColor=#b85450;fontStyle=1" vertex="1" parent="WIyWlLk6GJQsqaUBKTNV-1">
          <mxGeometry x="120" y="83.63" width="140" height="68.75" as="geometry" />
        </mxCell>
        <mxCell id="M58NiKq6CdFCrtSbu0_P-25" style="edgeStyle=orthogonalEdgeStyle;rounded=0;orthogonalLoop=1;jettySize=auto;html=1;exitX=1;exitY=0.5;exitDx=0;exitDy=0;entryX=0;entryY=0.75;entryDx=0;entryDy=0;strokeWidth=4;endArrow=blockThin;endFill=1;" edge="1" parent="WIyWlLk6GJQsqaUBKTNV-1" source="M58NiKq6CdFCrtSbu0_P-16" target="M58NiKq6CdFCrtSbu0_P-7">
          <mxGeometry relative="1" as="geometry" />
        </mxCell>
        <mxCell id="M58NiKq6CdFCrtSbu0_P-16" value="X&lt;sup&gt;(t)&lt;/sup&gt;" style="text;html=1;align=center;verticalAlign=middle;whiteSpace=wrap;rounded=0;fontSize=23;strokeWidth=4;" vertex="1" parent="WIyWlLk6GJQsqaUBKTNV-1">
          <mxGeometry x="10" y="120" width="60" height="30" as="geometry" />
        </mxCell>
        <mxCell id="M58NiKq6CdFCrtSbu0_P-20" value="h&lt;sup&gt;(t)&lt;/sup&gt;" style="text;html=1;align=center;verticalAlign=middle;whiteSpace=wrap;rounded=0;fontSize=28;" vertex="1" parent="WIyWlLk6GJQsqaUBKTNV-1">
          <mxGeometry x="310" y="53.629999999999995" width="60" height="30" as="geometry" />
        </mxCell>
        <mxCell id="M58NiKq6CdFCrtSbu0_P-22" value="y&lt;sup&gt;(t)&lt;/sup&gt;" style="text;html=1;align=center;verticalAlign=middle;whiteSpace=wrap;rounded=0;fontSize=28;" vertex="1" parent="WIyWlLk6GJQsqaUBKTNV-1">
          <mxGeometry x="310" y="120" width="60" height="30" as="geometry" />
        </mxCell>
        <mxCell id="M58NiKq6CdFCrtSbu0_P-23" value="h&lt;sup&gt;(t-1)&lt;/sup&gt;" style="text;html=1;align=center;verticalAlign=middle;whiteSpace=wrap;rounded=0;fontSize=28;" vertex="1" parent="WIyWlLk6GJQsqaUBKTNV-1">
          <mxGeometry x="10" y="53.629999999999995" width="70" height="30" as="geometry" />
        </mxCell>
        <mxCell id="M58NiKq6CdFCrtSbu0_P-24" style="edgeStyle=orthogonalEdgeStyle;rounded=0;orthogonalLoop=1;jettySize=auto;html=1;exitX=1;exitY=0.25;exitDx=0;exitDy=0;entryX=0;entryY=0.25;entryDx=0;entryDy=0;strokeWidth=4;endArrow=blockThin;endFill=1;" edge="1" parent="WIyWlLk6GJQsqaUBKTNV-1" source="M58NiKq6CdFCrtSbu0_P-7" target="M58NiKq6CdFCrtSbu0_P-7">
          <mxGeometry relative="1" as="geometry">
            <Array as="points">
              <mxPoint x="300" y="101" />
              <mxPoint x="300" y="40" />
              <mxPoint x="80" y="40" />
              <mxPoint x="80" y="101" />
            </Array>
          </mxGeometry>
        </mxCell>
      </root>
    </mxGraphModel>
  </diagram>
</mxfile>
